<svg xmlns="http://www.w3.org/2000/svg"  viewBox="0 0 64 64" width="64px" height="64px"><radialGradient id="_DN577oPX2BHdzR83gMHza" cx="248.889" cy="192.111" r="185.701" gradientUnits="userSpaceOnUse"><stop offset="0" stop-color="#afeeff"/><stop offset=".193" stop-color="#bbf1ff"/><stop offset=".703" stop-color="#d7f8ff"/><stop offset="1" stop-color="#e1faff"/></radialGradient><path fill="url(#_DN577oPX2BHdzR83gMHza)" d="M59.5,61L59.5,61c2.485,0,4.5-2.015,4.5-4.5l0,0c0-2.485-2.015-4.5-4.5-4.5l0,0	c-2.485,0-4.5,2.015-4.5,4.5l0,0C55,58.985,57.015,61,59.5,61z M0,24L0,24c0-2.761,2.239-5,5-5h5c2.761,0,5-2.238,5-5l0,0	c0-2.762-2.238-5-5-5H9.434C7.52,9,6,7.48,6,5.605V5.5C6,3.567,7.567,2,9.5,2h43c1.926,0,3.49,1.556,3.5,3.483V5.5	C56.01,7.43,54.447,9,52.517,9H52c-2.209,0-4,1.791-4,4l0,0c0,2.209,1.791,4,4,4h7c2.761,0,5,2.239,5,5l0,0c0,2.761-2.239,5-5,5h-1	c-2.209,0-4,1.791-4,4l0,0c0,2.209,1.791,4,4,4h0.5c3.038,0,5.5,2.462,5.5,5.5l0,0c0,3.038-2.462,5.5-5.5,5.5H47	c-1.657,0-3,1.343-3,3l0,0c0,1.657,1.343,3,3,3h1.5c2.485,0,4.5,2.015,4.5,4.5l0,0c0,2.485-2.015,4.5-4.5,4.5H31H9	c-2.209,0-4-1.791-4-4l0,0c0-2.209,1.791-4,4-4h1.5c1.933,0,3.5-1.567,3.5-3.5l0,0c0-1.933-1.567-3.5-3.5-3.5H4	c-2.209,0-4-1.791-4-4l0,0c0-2.209,1.791-4,4-4h1.5c2.485,0,4.5-2.015,4.5-4.5l0,0c0-2.485-2.015-4.5-4.5-4.5H5	C2.239,29,0,26.761,0,24z"/><linearGradient id="_DN577oPX2BHdzR83gMHzb" x1="32" x2="32" y1="1190.075" y2="1138.49" gradientTransform="translate(0 -1134)" gradientUnits="userSpaceOnUse"><stop offset="0" stop-color="#fec701"/><stop offset="1" stop-color="#feac01"/></linearGradient><path fill="url(#_DN577oPX2BHdzR83gMHzb)" d="M18,8h28c5.523,0,10,4.477,10,10v28	c0,5.523-4.477,10-10,10H18c-5.523,0-10-4.477-10-10V18C8,12.477,12.477,8,18,8z"/><linearGradient id="_DN577oPX2BHdzR83gMHzc" x1="32" x2="32" y1="50" y2="15" gradientUnits="userSpaceOnUse"><stop offset="0" stop-color="#fff"/><stop offset="1" stop-color="#ffecc7"/></linearGradient><path fill="url(#_DN577oPX2BHdzR83gMHzc)" d="M35,49c0,0.553-0.447,1-1,1h-4	c-0.553,0-1-0.447-1-1s0.447-1,1-1h4C34.553,48,35,48.447,35,49z M35,45h-6c-0.553,0-1,0.447-1,1s0.447,1,1,1h6c0.553,0,1-0.447,1-1	S35.553,45,35,45z M43,26c0,3.205-1.373,6.086-3.562,8.093C37.326,36.031,36,38.674,36,41.539V42c0,1.105-0.895,2-2,2h-4	c-1.105,0-2-0.895-2-2v-0.461c0-2.866-1.326-5.509-3.438-7.446C22.373,32.086,21,29.205,21,26c0-6.075,4.925-11,11-11	S43,19.925,43,26z M36.583,28.833c0-0.507-0.41-0.917-0.917-0.917h-7.333c-0.507,0-0.917,0.41-0.917,0.917s0.41,0.917,0.917,0.917	h2.75v10.167c0,0.507,0.41,0.917,0.917,0.917s0.917-0.41,0.917-0.917V29.75h2.75C36.173,29.75,36.583,29.34,36.583,28.833z"/></svg>