<?xml version="1.0" encoding="UTF-8" standalone="no"?>
<!DOCTYPE svg PUBLIC "-//W3C//DTD SVG 1.1//EN"
 "http://www.w3.org/Graphics/SVG/1.1/DTD/svg11.dtd">
<!-- Generated by graphviz version 8.1.0 (20230707.2238)
 -->
<!-- Title: snakemake_dag Pages: 1 -->
<svg width="262pt" height="188pt"
 viewBox="0.00 0.00 262.00 188.00" xmlns="http://www.w3.org/2000/svg" xmlns:xlink="http://www.w3.org/1999/xlink">
<g id="graph0" class="graph" transform="scale(1 1) rotate(0) translate(4 184)">
<title>snakemake_dag</title>
<polygon fill="white" stroke="none" points="-4,4 -4,-184 258,-184 258,4 -4,4"/>
<!-- 0 -->
<g id="node1" class="node">
<title>0</title>
<path fill="none" stroke="#afd856" stroke-width="2" d="M161.88,-36C161.88,-36 131.88,-36 131.88,-36 125.88,-36 119.88,-30 119.88,-24 119.88,-24 119.88,-12 119.88,-12 119.88,-6 125.88,0 131.88,0 131.88,0 161.88,0 161.88,0 167.88,0 173.88,-6 173.88,-12 173.88,-12 173.88,-24 173.88,-24 173.88,-30 167.88,-36 161.88,-36"/>
<text text-anchor="middle" x="146.88" y="-14.88" font-family="sans" font-size="10.00">all</text>
</g>
<!-- 1 -->
<g id="node2" class="node">
<title>1</title>
<path fill="none" stroke="#56d8a9" stroke-width="2" d="M176.25,-108C176.25,-108 117.5,-108 117.5,-108 111.5,-108 105.5,-102 105.5,-96 105.5,-96 105.5,-84 105.5,-84 105.5,-78 111.5,-72 117.5,-72 117.5,-72 176.25,-72 176.25,-72 182.25,-72 188.25,-78 188.25,-84 188.25,-84 188.25,-96 188.25,-96 188.25,-102 182.25,-108 176.25,-108"/>
<text text-anchor="middle" x="146.88" y="-86.88" font-family="sans" font-size="10.00">star_mapping</text>
</g>
<!-- 1&#45;&gt;0 -->
<g id="edge1" class="edge">
<title>1&#45;&gt;0</title>
<path fill="none" stroke="grey" stroke-width="2" d="M146.88,-71.34C146.88,-64.75 146.88,-57.08 146.88,-49.67"/>
<polygon fill="grey" stroke="grey" stroke-width="2" points="150.38,-49.9 146.88,-39.9 143.38,-49.9 150.38,-49.9"/>
</g>
<!-- 2 -->
<g id="node3" class="node">
<title>2</title>
<path fill="none" stroke="#d85656" stroke-width="2" d="M145.75,-180C145.75,-180 12,-180 12,-180 6,-180 0,-174 0,-168 0,-168 0,-156 0,-156 0,-150 6,-144 12,-144 12,-144 145.75,-144 145.75,-144 151.75,-144 157.75,-150 157.75,-156 157.75,-156 157.75,-168 157.75,-168 157.75,-174 151.75,-180 145.75,-180"/>
<text text-anchor="middle" x="78.88" y="-165.25" font-family="sans" font-size="10.00">combine_reads</text>
<text text-anchor="middle" x="78.88" y="-152.5" font-family="sans" font-size="10.00">input_reads: SRR9843415_S1</text>
</g>
<!-- 2&#45;&gt;1 -->
<g id="edge2" class="edge">
<title>2&#45;&gt;1</title>
<path fill="none" stroke="grey" stroke-width="2" d="M96.03,-143.34C103.47,-135.69 112.34,-126.56 120.57,-118.08"/>
<polygon fill="grey" stroke="grey" stroke-width="2" points="123.03,-120.51 127.48,-110.9 118.01,-115.64 123.03,-120.51"/>
</g>
<!-- 3 -->
<g id="node4" class="node">
<title>3</title>
<path fill="none" stroke="#d8ac56" stroke-width="2" stroke-dasharray="5,2" d="M242,-180C242,-180 187.75,-180 187.75,-180 181.75,-180 175.75,-174 175.75,-168 175.75,-168 175.75,-156 175.75,-156 175.75,-150 181.75,-144 187.75,-144 187.75,-144 242,-144 242,-144 248,-144 254,-150 254,-156 254,-156 254,-168 254,-168 254,-174 248,-180 242,-180"/>
<text text-anchor="middle" x="214.88" y="-158.88" font-family="sans" font-size="10.00">gen_star_idx</text>
</g>
<!-- 3&#45;&gt;1 -->
<g id="edge3" class="edge">
<title>3&#45;&gt;1</title>
<path fill="none" stroke="grey" stroke-width="2" d="M197.72,-143.34C190.28,-135.69 181.41,-126.56 173.18,-118.08"/>
<polygon fill="grey" stroke="grey" stroke-width="2" points="175.74,-115.64 166.27,-110.9 170.72,-120.51 175.74,-115.64"/>
</g>
</g>
</svg>
